<svg id="Calque_1" data-name="Calque 1" xmlns="http://www.w3.org/2000/svg" xmlns:xlink="http://www.w3.org/1999/xlink" viewBox="0 0 1121.5 353.31"><defs><style>.cls-1{font-size:248.09px;fill:none;stroke:#22b573;stroke-miterlimit:10;stroke-width:3px;font-family:FugazOne-Regular, Fugaz One;}.cls-2{stroke:#29abe2;}.cls-3{fill:url(#Dégradé_sans_nom_82);}.cls-4{fill:url(#Dégradé_sans_nom_65);}</style><linearGradient id="Dégradé_sans_nom_82" x1="431.86" y1="884.43" x2="593.49" y2="884.43" gradientTransform="translate(270.72 -509.01) rotate(9.38)" gradientUnits="userSpaceOnUse"><stop offset="0" stop-color="#0071bc"/><stop offset="0.48" stop-color="#29abe2"/><stop offset="1" stop-color="#22b573"/></linearGradient><linearGradient id="Dégradé_sans_nom_65" x1="439.42" y1="755.99" x2="601.05" y2="755.99" gradientTransform="translate(270.72 -509.01) rotate(9.38)" gradientUnits="userSpaceOnUse"><stop offset="0" stop-color="#22b573"/><stop offset="0.38" stop-color="#00a99d"/><stop offset="0.99" stop-color="#29abe2"/></linearGradient></defs><title>LOGO FLASHUP V1</title><text class="cls-1" transform="translate(1.5 247.12) scale(0.99 1)"><tspan xml:space="preserve">FLA   </tspan><tspan class="cls-2" x="619.96" y="0">HUP</tspan></text><path class="cls-3" d="M723.35,391.18,669,346.31c-7-5.81-20.82,2.91-30.63,19.38l-17.1,28.69,4.8,4,13-21.78c7.58-12.72,18.22-19.46,23.66-15l42,34.66c5.43,4.48-152.45,126-144.87,113.28l52.67-88.42-4.7-4.11-72,120.85C526,554.32,730.39,397,723.35,391.18Z" transform="translate(-121.5 -229.69)"/><path class="cls-4" d="M570,377.56l54.36,44.87c7,5.81,20.82-2.91,30.63-19.38l17.1-28.69-4.8-4-13,21.79c-7.57,12.72-18.22,19.45-23.65,15l-42-34.66C583.2,368,741.08,246.5,733.5,259.22l-52.67,88.41,4.7,4.12,72-120.85C767.35,214.43,562.93,371.75,570,377.56Z" transform="translate(-121.5 -229.69)"/></svg>