<svg id="Calque_1" data-name="Calque 1" xmlns="http://www.w3.org/2000/svg" xmlns:xlink="http://www.w3.org/1999/xlink" viewBox="0 0 497.45 680.83"><defs><style>.cls-1{fill:url(#Dégradé_sans_nom_82);}.cls-2{fill:url(#Dégradé_sans_nom_65);}</style><linearGradient id="Dégradé_sans_nom_82" x1="372.89" y1="951.23" x2="758.78" y2="951.23" gradientTransform="translate(270.72 -509.01) rotate(9.38)" gradientUnits="userSpaceOnUse"><stop offset="0" stop-color="#0071bc"/><stop offset="0.48" stop-color="#29abe2"/><stop offset="1" stop-color="#22b573"/></linearGradient><linearGradient id="Dégradé_sans_nom_65" x1="364.31" y1="668.82" x2="753.11" y2="668.82" gradientTransform="translate(270.72 -509.01) rotate(9.38)" gradientUnits="userSpaceOnUse"><stop offset="0" stop-color="#22b573"/><stop offset="0.38" stop-color="#00a99d"/><stop offset="0.99" stop-color="#29abe2"/></linearGradient></defs><title>Logo grossi pour appli</title><path class="cls-1" d="M887,413,746.34,298.21C730.79,285.5,687.68,285,666,321l-42,56,29.47,29.07,26.68-41.67c16.75-27.83,40.28-42.57,52.29-32.76l92.79,75.85c12,9.81-336.9,275.72-320.15,247.89L616.49,470.9,586,441,446,721C424.32,757,902.55,425.71,887,413Z" transform="translate(-445.28 -42.91)"/><path class="cls-2" d="M498,354,647.66,464.79C663.21,477.5,722.32,472,744,436l34-49-38.47-31.07L713.84,398.6c-16.74,27.83-40.27,42.57-52.28,32.76l-92.8-75.85c-12-9.81,336.9-275.72,320.15-247.89L775.5,296.1,815,328,942,45.64C963.7,9.61,482.45,341.29,498,354Z" transform="translate(-445.28 -42.91)"/></svg>