<svg width="96" height="96" xmlns="http://www.w3.org/2000/svg" xmlns:xlink="http://www.w3.org/1999/xlink" xml:space="preserve" overflow="hidden"><defs><clipPath id="clip0"><rect x="323" y="320" width="96" height="96"/></clipPath></defs><g clip-path="url(#clip0)" transform="translate(-323 -320)"><path d="M397.793 364.863 402.208 359.071 404.594 360.89 400.179 366.682Z" fill="#262626"/><path d="M401.516 369.112 408.66 368.147 409.062 371.12 401.917 372.085Z" fill="#262626"/><path d="M378.073 371.786 378.649 368.843 385.725 370.229 385.149 373.172Z" fill="#262626"/><path d="M373.882 392.467 380.129 394.217 384.45 403.202 387.562 408 415.986 408 409.829 385.995 401.02 378 398.43 379.846 398.458 379.843 398.009 390.629 397.57 390.629 395.329 381.128 388.036 378 377.216 388.614 371.567 390.196 373.882 392.467Z" fill="#262626"/><path d="M352.285 393.681 365.228 388.18 372.331 395.148 378.014 396.74 381.829 404.674 383.986 408 343.986 408 352.285 393.681Z" fill="#262626"/><path d="M383.4 349.473C383.694 348.576 383.729 347.615 383.5 346.699L385.816 344.281C386.465 343.605 386.453 342.534 385.79 341.872L383.3 339.384C382.637 338.721 381.567 338.71 380.89 339.358L378.502 341.646C377.533 341.385 376.508 341.421 375.561 341.751 366.006 333.789 354.144 328.342 345.188 328.074 344.806 328.048 344.465 328.308 344.388 328.683 344.299 329.052 344.482 329.432 344.825 329.594 352.48 333.223 360.02 338.747 369.397 347.667 368.958 348.621 368.831 349.689 369.033 350.72L325.531 392.389C324.843 393.047 324.818 394.138 325.476 394.827 325.484 394.835 325.492 394.843 325.5 394.851L330.323 399.67C330.995 400.343 332.086 400.343 332.758 399.67 332.767 399.661 332.776 399.652 332.785 399.643L374.491 356.1C375.504 356.28 376.547 356.143 377.479 355.708 384.379 362.859 391.437 371.07 396.018 379.948 396.153 380.215 396.426 380.384 396.725 380.384 396.798 380.384 396.87 380.374 396.94 380.354 397.305 380.255 397.549 379.912 397.523 379.535 396.971 370.463 391.443 358.87 383.4 349.473Z" fill="#262626"/></g></svg>