<svg width="96" height="96" xmlns="http://www.w3.org/2000/svg" xmlns:xlink="http://www.w3.org/1999/xlink" xml:space="preserve" overflow="hidden"><defs><clipPath id="clip0"><rect x="323" y="320" width="96" height="96"/></clipPath></defs><g clip-path="url(#clip0)" transform="translate(-323 -320)"><path d="M343.7 369.5 343.2 369.7C342.3 370.1 341.7 370.7 341.8 371.4L343.7 377.8 353.6 399.4C354.1 400.4 355.3 400.8 356.3 400.3 357.2 399.9 357.6 398.8 357.3 397.9L349 375.5 345.8 369.6C345.2 369.2 344.4 369.1 343.7 369.5Z" fill="#262626"/><path d="M360.4 368.8 355.5 370.8C353.6 371.5 351.8 372.2 350 373L350.8 374.5 350.9 374.6 350.9 374.7 351.6 376.6C353.3 375.8 355 375.2 356.8 374.5L356.8 374.5 356.9 374.4C357.6 374.2 358.2 373.9 358.9 373.7L369.7 383.3C370.5 384 371.6 384 372.4 383.3L383.2 373.7C383.9 373.9 384.5 374.2 385.2 374.4L385.4 374.5 385.4 374.5C389.6 376 393.6 377.7 396.9 380.4 397.3 380.7 397.6 381.1 397.9 381.5 399.6 381.8 401.2 382.2 402.8 382.9 402.3 380.7 401.1 378.7 399.3 377.3 395.6 374.2 391.2 372.3 386.5 370.7L381.6 368.7C381.2 368.5 381 368.2 381 367.8L381 365.4C384.8 362.4 387 357.8 387 352.9L387 352.3 387.4 352.5C387.9 352.7 388.5 352.4 388.7 351.9L388.9 351.2C392.5 353 393.6 351.9 394.1 350 394.8 347.4 385.3 339.5 377.3 335 377 334.8 376.6 334.6 376.3 334.5 376.9 334.1 377.6 333.8 378.3 333.5 378.8 333.3 379.1 332.8 378.9 332.2 378.7 331.7 378.2 331.4 377.7 331.6 376.4 332 375.2 332.7 374.2 333.6 368 331.5 362.7 333.6 358.5 333.4 354.3 333.2 352.5 333.3 351.4 335.3 350 337.8 351.9 341.6 354.5 342.5L354.3 343.2C354.2 343.7 354.5 344.3 355 344.4L355 344.4 355 344.5 351 349.1C352.3 349.3 353.7 349.3 355 349.1L355 353C355 357.8 357.2 362.4 361 365.5L361 368C361 368.3 360.8 368.7 360.4 368.8ZM371 379.3 362.8 372C364.2 371.1 365 369.5 365 367.9L365 367.8C368.8 369.4 373.2 369.4 377 367.8L377 367.9C377 369.5 377.8 371.1 379.2 372L371 379.3ZM359 353 359 348.2C361.1 347.6 363.1 346.7 365.1 345.6L363 349C366.6 348.9 370 347.9 373.1 346 376.3 346.9 379.4 348.2 382.3 349.8L383 350.2 383 353C383 359.6 377.6 365 371 365 364.4 365 359 359.6 359 353L359 353Z" fill="#262626"/><path d="M343 400.3 343 385C343 384.1 343.2 383.3 343.6 382.5L341.8 378.5 341.7 378.4 341.7 378.3C340 380.2 339.1 382.5 339 385L339 402.6 339.9 403.2C344.8 406.5 358.1 408.1 371.3 408.1 375.3 408.1 379.4 407.9 383.1 407.6 381.1 406.7 379.2 405.4 377.6 403.9 364.2 404.4 348.7 403.2 343 400.3Z" fill="#262626"/><path d="M342.5 367.4C345.1 366.3 346.3 363.4 345.2 360.8 344.4 358.9 342.6 358.6 341.1 357.7 339.4 356.8 338.3 355 338.5 353 334.4 355.4 334.4 360.9 335.9 364.6 336.9 367.3 339.9 368.5 342.5 367.4 342.5 367.4 342.5 367.4 342.5 367.4Z" fill="#262626"/><path d="M393.4 383.3C383.5 383.3 385 387.2 386 388.1L388.2 390.3C389.6 391.7 387.9 393.4 386.3 392.7L380.8 390.3C377 388.6 375.9 393.3 375.9 395.6 375.9 402.4 383.7 407.9 393.4 407.9 403.1 407.9 410.9 402.4 410.9 395.6 410.9 388.8 403 383.3 393.4 383.3ZM404.3 389.4C405.5 389.4 406.5 390.1 406.5 390.9 406.5 391.7 405.5 392.4 404.3 392.4 403.1 392.4 402.1 391.7 402.1 390.9 402.1 390.1 403.1 389.4 404.3 389.4ZM387.2 404.7C386 404.7 385 404 385 403.2 385 402.4 386 401.7 387.2 401.7 388.4 401.7 389.4 402.4 389.4 403.2 389.4 404 388.5 404.7 387.2 404.7ZM393.4 405.6C392.2 405.6 391.2 404.9 391.2 404.1 391.2 403.3 392.2 402.6 393.4 402.6 394.6 402.6 395.6 403.3 395.6 404.1 395.6 404.9 394.6 405.6 393.4 405.6ZM399.5 404.3C398.3 404.3 397.3 403.6 397.3 402.8 397.3 402 398.3 401.3 399.5 401.3 400.7 401.3 401.7 402 401.7 402.8 401.7 403.6 400.7 404.3 399.5 404.3ZM399.5 389.4C398.3 389.4 397.3 388.7 397.3 387.9 397.3 387.1 398.3 386.4 399.5 386.4 400.7 386.4 401.7 387.1 401.7 387.9 401.7 388.7 400.7 389.4 399.5 389.4ZM404.3 401.6C403.1 401.6 402.1 400.9 402.1 400.1 402.1 399.3 403.1 398.6 404.3 398.6 405.5 398.6 406.5 399.3 406.5 400.1 406.5 400.9 405.5 401.6 404.3 401.6ZM406.5 396.8C405.3 396.8 404.3 396.1 404.3 395.3 404.3 394.5 405.3 393.8 406.5 393.8 407.7 393.8 408.7 394.5 408.7 395.3 408.7 396.1 407.7 396.8 406.5 396.8Z" fill="#262626"/></g></svg>