<svg xmlns="http://www.w3.org/2000/svg" width="66" height="12" viewBox="0 0 66 12">
    <path fill="#FF6224" fill-rule="evenodd" d="M6.339 0l1.489 4.594 4.85-.01-3.93 2.828L10.257 12 6.339 9.154 2.421 12l1.51-4.588L0 4.584l4.85.01L6.34 0zm13.33 0l1.49 4.594 4.85-.01-3.93 2.828L23.586 12 19.67 9.154 15.752 12l1.509-4.588-3.93-2.828 4.85.01L19.67 0zM33 0l1.489 4.594 4.85-.01-3.93 2.828L36.918 12 33 9.154 29.082 12l1.51-4.588-3.931-2.828 4.85.01L33 0zm13.33 0l1.49 4.594 4.85-.01-3.93 2.828L50.247 12 46.33 9.154 42.413 12l1.509-4.588-3.93-2.828 4.85.01L46.33 0zm13.331 0l1.489 4.594 4.85-.01-3.93 2.828L63.579 12 59.66 9.154 55.743 12l1.51-4.588-3.931-2.828 4.85.01L59.661 0z"/>
</svg>